<?xml version="1.0" encoding="utf-8"?>
<!-- Generator: Adobe Illustrator 25.0.1, SVG Export Plug-In . SVG Version: 6.00 Build 0)  -->
<svg version="1.1" id="Capa_1" xmlns="http://www.w3.org/2000/svg" xmlns:xlink="http://www.w3.org/1999/xlink" x="0px" y="0px"
	 viewBox="0 0 477.5 477.5" style="enable-background:new 0 0 477.5 477.5;" xml:space="preserve">
<style type="text/css">
	.st0{fill:none;stroke:#AAAAAA;stroke-width:11;stroke-miterlimit:10;}
</style>
<g>
	<g>
		<path class="st0" d="M428.1,68c-23.4-25.2-56.2-39.5-90.6-39.5c-34.4,0-67.2,14.4-90.7,39.5l-8,8.4l-8-8.4
			C184.3,17.9,106,15,55.9,61.6c-2.2,2.1-4.4,4.2-6.4,6.4c-49.4,53.2-49.4,135.5,0,188.8L227.1,444c6.1,6.5,16.4,6.8,22.9,0.6
			c0.2-0.2,0.4-0.4,0.6-0.6l177.5-187.3C477.4,203.5,477.4,121.2,428.1,68z"/>
	</g>
</g>
</svg>
